<svg xmlns="http://www.w3.org/2000/svg" xmlns:xlink="http://www.w3.org/1999/xlink" width="840" height="561.04"><rect width="840" height="561.04" rx="0" ry="0" class="a"></rect><svg height="521.04" viewBox="0 0 80 52.104" width="800" x="20" xmlns="http://www.w3.org/2000/svg" xmlns:xlink="http://www.w3.org/1999/xlink" y="20"><style>.a{fill:rgb(40,45,53)}.b{font-family:'Fira Code',Monaco,Consolas,Menlo,'Bitstream Vera Sans Mono','Powerline Symbols',monospace}.c{fill:rgb(185,192,203);white-space:pre}.d{fill:transparent}.e{fill:rgb(102,194,205);white-space:pre}.f{fill:rgb(232,131,136);white-space:pre}.g{fill:rgb(210,144,228);white-space:pre}.h{fill:rgb(168,204,140);white-space:pre}</style><g font-family="&#x27;Fira Code&#x27;,Monaco,Consolas,Menlo,&#x27;Bitstream Vera Sans Mono&#x27;,&#x27;Powerline Symbols&#x27;,monospace" font-size="1.67" class="b"><defs><symbol id="1"><text font-size="1.67" x="2.004" y="1.67" class="c">Warning</text><text font-size="1.67" x="10.02" y="1.67" class="c">in</text><text font-size="1.67" x="13.026" y="1.67" class="c">texi2dvi(file</text><text font-size="1.67" x="27.054" y="1.67" class="c">=</text><text font-size="1.67" x="29.058" y="1.67" class="c">file,</text><text font-size="1.67" x="35.06999999999999" y="1.67" class="c">pdf</text><text font-size="1.67" x="39.077999999999996" y="1.67" class="c">=</text><text font-size="1.67" x="41.082" y="1.67" class="c">TRUE,</text><text font-size="1.67" x="47.093999999999994" y="1.67" class="c">clean</text><text font-size="1.67" x="53.105999999999995" y="1.67" class="c">=</text><text font-size="1.67" x="55.10999999999999" y="1.67" class="c">clean,</text><text font-size="1.67" x="62.123999999999995" y="1.67" class="c">quiet</text><text font-size="1.67" x="68.136" y="1.67" class="c">=</text><text font-size="1.67" x="70.13999999999999" y="1.67" class="c">quiet,</text><text font-size="1.67" x="78.15599999999999" y="1.67" class="c">:</text></symbol><symbol id="2"><text font-size="1.67" x="4.008" y="1.67" class="c">texi2dvi</text><text font-size="1.67" x="13.026" y="1.67" class="c">script/program</text><text font-size="1.67" x="28.055999999999997" y="1.67" class="c">not</text><text font-size="1.67" x="32.064" y="1.67" class="c">available,</text><text font-size="1.67" x="43.086" y="1.67" class="c">using</text><text font-size="1.67" x="49.098" y="1.67" class="c">emulation</text></symbol><symbol id="3"><text font-size="1.67" x="2.004" y="1.67" class="c">Error</text><text font-size="1.67" x="8.016" y="1.67" class="c">in</text><text font-size="1.67" x="11.021999999999998" y="1.67" class="c">texi2dvi(file</text><text font-size="1.67" x="25.05" y="1.67" class="c">=</text><text font-size="1.67" x="27.054" y="1.67" class="c">file,</text><text font-size="1.67" x="33.065999999999995" y="1.67" class="c">pdf</text><text font-size="1.67" x="37.074" y="1.67" class="c">=</text><text font-size="1.67" x="39.077999999999996" y="1.67" class="c">TRUE,</text><text font-size="1.67" x="45.089999999999996" y="1.67" class="c">clean</text><text font-size="1.67" x="51.102" y="1.67" class="c">=</text><text font-size="1.67" x="53.105999999999995" y="1.67" class="c">clean,</text><text font-size="1.67" x="60.11999999999999" y="1.67" class="c">quiet</text><text font-size="1.67" x="66.13199999999999" y="1.67" class="c">=</text><text font-size="1.67" x="68.136" y="1.67" class="c">quiet,</text><text font-size="1.67" x="76.15199999999999" y="1.67" class="c">:</text></symbol><symbol id="4"><text font-size="1.67" x="4.008" y="1.67" class="c">pdflatex</text><text font-size="1.67" x="13.026" y="1.67" class="c">is</text><text font-size="1.67" x="16.032" y="1.67" class="c">not</text><text font-size="1.67" x="20.04" y="1.67" class="c">available</text></symbol><symbol id="a"><rect height="24" width="80" x="0" y="0" class="d"></rect></symbol></defs><rect height="52.104" width="80" class="a"></rect><svg x="0" y="0" width="80"><svg x="0"><use xlink:href="#a"></use><text font-size="1.67" x="0" y="1.67" class="e">──</text><text font-size="1.67" x="3.006" y="1.67" class="e">R</text><text font-size="1.67" x="5.01" y="1.67" class="e">CMD</text><text font-size="1.67" x="9.017999999999999" y="1.67" class="e">check</text><text font-size="1.67" x="15.029999999999998" y="1.67" class="e">results</text><text font-size="1.67" x="23.045999999999996" y="1.67" class="e">───────────────────────────────</text><text font-size="1.67" x="55.10999999999999" y="1.67" class="e">val.meter</text><text font-size="1.67" x="65.13" y="1.67" class="e">0.0.0.9000</text><text font-size="1.67" x="76.15199999999999" y="1.67" class="e">────</text><text font-size="1.67" x="0" y="3.8409999999999997" class="c">Duration:</text><text font-size="1.67" x="10.02" y="3.8409999999999997" class="c">31.4s</text><text font-size="1.67" x="0" y="8.183" class="f">❯</text><text font-size="1.67" x="2.004" y="8.183" class="f">checking</text><text font-size="1.67" x="11.021999999999998" y="8.183" class="f">PDF</text><text font-size="1.67" x="15.029999999999998" y="8.183" class="f">version</text><text font-size="1.67" x="23.045999999999996" y="8.183" class="f">of</text><text font-size="1.67" x="26.052" y="8.183" class="f">manual</text><text font-size="1.67" x="33.065999999999995" y="8.183" class="f">without</text><text font-size="1.67" x="41.082" y="8.183" class="f">index</text><text font-size="1.67" x="47.093999999999994" y="8.183" class="f">...</text><text font-size="1.67" x="51.102" y="8.183" class="f">ERROR</text><text font-size="1.67" x="2.004" y="10.354" class="c">Re-running</text><text font-size="1.67" x="13.026" y="10.354" class="c">with</text><text font-size="1.67" x="18.035999999999998" y="10.354" class="c">no</text><text font-size="1.67" x="21.041999999999998" y="10.354" class="c">redirection</text><text font-size="1.67" x="33.065999999999995" y="10.354" class="c">of</text><text font-size="1.67" x="36.071999999999996" y="10.354" class="c">stdout/stderr.</text><text font-size="1.67" x="2.004" y="12.525" class="c">Hmm</text><text font-size="1.67" x="6.012" y="12.525" class="c">...</text><text font-size="1.67" x="10.02" y="12.525" class="c">looks</text><text font-size="1.67" x="16.032" y="12.525" class="c">like</text><text font-size="1.67" x="21.041999999999998" y="12.525" class="c">a</text><text font-size="1.67" x="23.045999999999996" y="12.525" class="c">package</text><text font-size="1.67" x="2.004" y="14.696" class="c">Converting</text><text font-size="1.67" x="13.026" y="14.696" class="c">parsed</text><text font-size="1.67" x="20.04" y="14.696" class="c">Rd&#x27;s</text><text font-size="1.67" x="25.05" y="14.696" class="c">to</text><text font-size="1.67" x="28.055999999999997" y="14.696" class="c">LaTeX</text><text font-size="1.67" x="34.068" y="14.696" class="c">....</text><text font-size="1.67" x="2.004" y="16.866999999999997" class="c">Creating</text><text font-size="1.67" x="11.021999999999998" y="16.866999999999997" class="c">pdf</text><text font-size="1.67" x="15.029999999999998" y="16.866999999999997" class="c">output</text><text font-size="1.67" x="22.043999999999997" y="16.866999999999997" class="c">from</text><text font-size="1.67" x="27.054" y="16.866999999999997" class="c">LaTeX</text><text font-size="1.67" x="33.065999999999995" y="16.866999999999997" class="c">...</text><use xlink:href="#1" y="17.368"></use><use xlink:href="#2" y="19.539"></use><use xlink:href="#3" y="21.71"></use><use xlink:href="#4" y="23.880999999999997"></use><use xlink:href="#1" y="26.052"></use><use xlink:href="#2" y="28.223000000000003"></use><use xlink:href="#3" y="30.394"></use><use xlink:href="#4" y="32.565"></use><text font-size="1.67" x="2.004" y="36.406" class="c">Error</text><text font-size="1.67" x="8.016" y="36.406" class="c">in</text><text font-size="1.67" x="11.021999999999998" y="36.406" class="c">running</text><text font-size="1.67" x="19.037999999999997" y="36.406" class="c">tools::texi2pdf()</text><text font-size="1.67" x="2.004" y="38.577000000000005" class="c">You</text><text font-size="1.67" x="6.012" y="38.577000000000005" class="c">may</text><text font-size="1.67" x="10.02" y="38.577000000000005" class="c">want</text><text font-size="1.67" x="15.029999999999998" y="38.577000000000005" class="c">to</text><text font-size="1.67" x="18.035999999999998" y="38.577000000000005" class="c">clean</text><text font-size="1.67" x="24.048" y="38.577000000000005" class="c">up</text><text font-size="1.67" x="27.054" y="38.577000000000005" class="c">by</text><text font-size="1.67" x="30.059999999999995" y="38.577000000000005" class="c">&#x27;rm</text><text font-size="1.67" x="34.068" y="38.577000000000005" class="c">-Rf</text><text font-size="1.67" x="38.07599999999999" y="38.577000000000005" class="c">/tmp/Rtmp8wg2gN/Rd2pdfa35710d0b22e&#x27;</text><text font-size="1.67" x="0" y="42.919" class="g">❯</text><text font-size="1.67" x="2.004" y="42.919" class="g">checking</text><text font-size="1.67" x="11.021999999999998" y="42.919" class="g">PDF</text><text font-size="1.67" x="15.029999999999998" y="42.919" class="g">version</text><text font-size="1.67" x="23.045999999999996" y="42.919" class="g">of</text><text font-size="1.67" x="26.052" y="42.919" class="g">manual</text><text font-size="1.67" x="33.065999999999995" y="42.919" class="g">...</text><text font-size="1.67" x="37.074" y="42.919" class="g">WARNING</text><text font-size="1.67" x="2.004" y="45.09" class="c">LaTeX</text><text font-size="1.67" x="8.016" y="45.09" class="c">errors</text><text font-size="1.67" x="15.029999999999998" y="45.09" class="c">when</text><text font-size="1.67" x="20.04" y="45.09" class="c">creating</text><text font-size="1.67" x="29.058" y="45.09" class="c">PDF</text><text font-size="1.67" x="33.065999999999995" y="45.09" class="c">version.</text><text font-size="1.67" x="2.004" y="47.261" class="c">This</text><text font-size="1.67" x="7.013999999999999" y="47.261" class="c">typically</text><text font-size="1.67" x="17.034" y="47.261" class="c">indicates</text><text font-size="1.67" x="27.054" y="47.261" class="c">Rd</text><text font-size="1.67" x="30.059999999999995" y="47.261" class="c">problems.</text><text font-size="1.67" x="0" y="51.603" class="f">1</text><text font-size="1.67" x="2.004" y="51.603" class="f">error</text><text font-size="1.67" x="8.016" y="51.603" class="f">✖</text><text font-size="1.67" x="10.02" y="51.603" class="c">|</text><text font-size="1.67" x="12.024" y="51.603" class="f">1</text><text font-size="1.67" x="14.027999999999999" y="51.603" class="f">warning</text><text font-size="1.67" x="22.043999999999997" y="51.603" class="f">✖</text><text font-size="1.67" x="24.048" y="51.603" class="c">|</text><text font-size="1.67" x="26.052" y="51.603" class="h">0</text><text font-size="1.67" x="28.055999999999997" y="51.603" class="h">notes</text><text font-size="1.67" x="34.068" y="51.603" class="h">✔</text></svg></svg></g></svg></svg>